<?xml version="1.0" encoding="UTF-8"?>
<svg version="1.1" xmlns="http://www.w3.org/2000/svg" width="32" height="27">
<path d="M0 0 C10.56 0 21.12 0 32 0 C32 8.91 32 17.82 32 27 C21.44 27 10.88 27 0 27 C0 18.09 0 9.18 0 0 Z " fill="#C3BDAC" transform="translate(0,0)"/>
<path d="M0 0 C1.98 0.495 1.98 0.495 4 1 C4.33 2.32 4.66 3.64 5 5 C5.33 3.35 5.66 1.7 6 0 C7.65 0.33 9.3 0.66 11 1 C10 7 9 13 8 19 C6.68 19.33 5.36 19.66 4 20 C4 17.03 4 14.06 4 11 C2.35 10.67 0.7 10.34 -1 10 C-1.125 2.25 -1.125 2.25 0 0 Z " fill="#1A1917" transform="translate(10,4)"/>
<path d="M0 0 C0.99 0 1.98 0 3 0 C3.33 3.3 3.66 6.6 4 10 C2.68 10.33 1.36 10.66 0 11 C-1.89885096 9.10114904 -1.12367506 6.42752097 -1.1328125 3.91015625 C-1 2 -1 2 0 0 Z " fill="#0F0F0D" transform="translate(10,4)"/>
</svg>
